 <svg
                        class="icon-ionicons-filled-checkmark-circle15"
                        width="20"
                        height="21"
                        viewBox="0 0 20 21"
                        fill="none"
                        xmlns="http://www.w3.org/2000/svg"
                      >
                        <path
                          d="M10 2.23438C5.51992 2.23438 1.875 5.8793 1.875 10.3594C1.875 14.8395 5.51992 18.4844 10 18.4844C14.4801 18.4844 18.125 14.8395 18.125 10.3594C18.125 5.8793 14.4801 2.23438 10 2.23438ZM14.2285 7.63633L8.97852 13.8863C8.92093 13.9549 8.84927 14.0103 8.76839 14.0488C8.68752 14.0873 8.59932 14.108 8.50977 14.1094H8.49922C8.41162 14.1093 8.325 14.0909 8.24499 14.0552C8.16497 14.0196 8.09335 13.9675 8.03477 13.9023L5.78477 11.4023C5.72762 11.3417 5.68317 11.2703 5.65403 11.1923C5.62488 11.1143 5.61162 11.0312 5.61504 10.948C5.61846 10.8647 5.63848 10.783 5.67392 10.7076C5.70936 10.6323 5.75952 10.5647 5.82143 10.509C5.88335 10.4533 5.95578 10.4105 6.03447 10.3832C6.11315 10.3559 6.19651 10.3445 6.27963 10.3499C6.36276 10.3552 6.44398 10.3771 6.51851 10.4143C6.59305 10.4515 6.6594 10.5032 6.71367 10.5664L8.48281 12.532L13.2715 6.83242C13.3789 6.70823 13.5309 6.6313 13.6945 6.61826C13.8582 6.60522 14.0205 6.65711 14.1462 6.76272C14.2719 6.86833 14.351 7.01918 14.3664 7.18265C14.3818 7.34612 14.3323 7.50909 14.2285 7.63633Z"
                          fill="#054CB6"
                        />
                      </svg>