<svg
                class="linkedin"
                width="24"
                height="25"
                viewBox="0 0 24 25"
                fill="none"
                xmlns="http://www.w3.org/2000/svg"
              >
                <g clip-path="url(#clip0_339_25293)">
                  <path
                    d="M0 7.85938H5.367V24.3594H0V7.85938ZM19.986 8.05288C19.929 8.03488 19.875 8.01537 19.815 7.99887C19.743 7.98257 19.6704 7.96856 19.5975 7.95688C19.2806 7.89208 18.958 7.85942 18.6345 7.85938C15.5055 7.85937 13.521 10.1349 12.867 11.0139V7.85938H7.5V24.3594H12.867V15.3594C12.867 15.3594 16.923 9.71037 18.6345 13.8594V24.3594H24V13.2249C23.9978 12.0401 23.6025 10.8895 22.8761 9.95354C22.1496 9.01755 21.1332 8.34907 19.986 8.05288Z"
                    fill="#FAFBFF"
                  />
                  <path
                    d="M2.625 5.60938C4.07475 5.60938 5.25 4.43412 5.25 2.98438C5.25 1.53463 4.07475 0.359375 2.625 0.359375C1.17525 0.359375 0 1.53463 0 2.98438C0 4.43412 1.17525 5.60938 2.625 5.60938Z"
                    fill="#FAFBFF"
                  />
                </g>
                <defs>
                  <clipPath id="clip0_339_25293">
                    <rect
                      width="24"
                      height="24"
                      fill="white"
                      transform="translate(0 0.359375)"
                    />
                  </clipPath>
                </defs>
              </svg>