<svg
            class="logo"
            width="162"
            height="44"
            viewBox="0 0 162 44"
            fill="none"
            xmlns="http://www.w3.org/2000/svg"
          >
            <g clip-path="url(#clip0_339_25100)">
              <path
                fill-rule="evenodd"
                clip-rule="evenodd"
                d="M4.03253 29.4365L0.00823414 12.8363C-0.033029 12.6661 0.0854375 12.4986 0.259673 12.4808L25.035 9.9527C25.2162 9.93421 25.369 10.0858 25.352 10.2671L23.8491 26.298C23.836 26.4381 23.7239 26.5484 23.5836 26.5591L17.1557 27.0536C17.1017 27.0577 17.05 27.077 17.0065 27.109L7.66326 33.9936C7.47251 34.1341 7.20295 33.9979 7.20295 33.7609V29.9462C7.20295 29.7867 7.07361 29.6573 6.91406 29.6573H4.3133C4.17996 29.6573 4.06395 29.5661 4.03253 29.4365ZM6.68347 22.3846C7.54416 22.3846 8.24192 21.6869 8.24192 20.8262C8.24192 19.9654 7.54416 19.2677 6.68347 19.2677C5.82277 19.2677 5.12503 19.9654 5.12503 20.8262C5.12503 21.6869 5.82277 22.3846 6.68347 22.3846ZM15.5147 19.7873C15.5147 20.648 14.817 21.3457 13.9563 21.3457C13.0956 21.3457 12.3979 20.648 12.3979 19.7873C12.3979 18.9265 13.0956 18.2288 13.9563 18.2288C14.817 18.2288 15.5147 18.9265 15.5147 19.7873ZM20.1899 20.3066C21.0506 20.3066 21.7484 19.6089 21.7484 18.7482C21.7484 17.8875 21.0506 17.1897 20.1899 17.1897C19.3292 17.1897 18.6314 17.8875 18.6314 18.7482C18.6314 19.6089 19.3292 20.3066 20.1899 20.3066Z"
                fill="#0A0A0A"
              />
              <path
                d="M48.4354 25.1801H52.8606C52.7718 26.6305 52.3722 27.9182 51.6618 29.043C50.9613 30.1678 49.9795 31.0459 48.7166 31.6774C47.4636 32.3089 45.9539 32.6245 44.1878 32.6245C42.8064 32.6245 41.5682 32.3878 40.473 31.9141C39.3778 31.4307 38.4404 30.7401 37.661 29.8422C36.8914 28.9443 36.3043 27.8589 35.8998 26.5861C35.4953 25.3134 35.293 23.8876 35.293 22.309V20.8141C35.293 19.2355 35.5002 17.8097 35.9146 16.5369C36.3389 15.2543 36.9407 14.164 37.7202 13.2662C38.5095 12.3683 39.4518 11.6776 40.547 11.1941C41.6422 10.7106 42.8657 10.4689 44.2174 10.4689C46.0131 10.4689 47.5277 10.7946 48.761 11.4457C50.0042 12.0969 50.9662 12.9948 51.647 14.1394C52.3376 15.2839 52.7521 16.5863 52.8902 18.0466H48.4502C48.4009 17.1783 48.2282 16.4432 47.9322 15.8413C47.6362 15.2296 47.1872 14.7708 46.5854 14.4649C45.9934 14.1492 45.2041 13.9914 44.2174 13.9914C43.4774 13.9914 42.8311 14.1295 42.2786 14.4057C41.726 14.682 41.2623 15.1013 40.8874 15.6637C40.5124 16.2261 40.2313 16.9365 40.0438 17.7949C39.8662 18.6435 39.7774 19.64 39.7774 20.7845V22.309C39.7774 23.4239 39.8613 24.4056 40.029 25.2542C40.1967 26.0928 40.4533 26.8032 40.7986 27.3854C41.1538 27.9576 41.6076 28.3917 42.1602 28.6878C42.7226 28.9739 43.3985 29.117 44.1878 29.117C45.1152 29.117 45.88 28.969 46.4818 28.673C47.0837 28.3769 47.5424 27.9379 47.8582 27.3558C48.1838 26.7736 48.3762 26.0484 48.4354 25.1801ZM59.6686 9.5957V32.3286H55.4062V9.5957H59.6686ZM59.0618 23.7593H57.8926C57.9025 22.6444 58.0505 21.6183 58.3366 20.681C58.6228 19.7337 59.0322 18.9148 59.565 18.2242C60.0978 17.5236 60.7342 16.981 61.4742 16.5962C62.2241 16.2113 63.0529 16.0189 63.9606 16.0189C64.75 16.0189 65.4653 16.1324 66.1066 16.3593C66.7578 16.5764 67.3153 16.9316 67.779 17.4249C68.2526 17.9084 68.6177 18.5448 68.8742 19.3341C69.1307 20.1235 69.259 21.0806 69.259 22.2053V32.3286H64.967V22.1757C64.967 21.4653 64.8634 20.9079 64.6562 20.5034C64.4589 20.0889 64.1678 19.7979 63.783 19.6302C63.4081 19.4526 62.9443 19.3637 62.3918 19.3637C61.7801 19.3637 61.2572 19.4772 60.823 19.7041C60.3988 19.9311 60.0583 20.2468 59.8018 20.6514C59.5453 21.046 59.3578 21.5097 59.2394 22.0425C59.121 22.5753 59.0618 23.1477 59.0618 23.7593ZM81.1437 28.7173V21.5838C81.1437 21.0707 81.0599 20.6316 80.8916 20.2665C80.724 19.8916 80.4626 19.6006 80.1072 19.3933C79.762 19.1861 79.3135 19.0826 78.761 19.0826C78.2872 19.0826 77.8777 19.1664 77.5324 19.3341C77.1872 19.492 76.9207 19.7239 76.7329 20.0297C76.5458 20.3258 76.4519 20.676 76.4519 21.0806H72.1895C72.1895 20.3997 72.3474 19.7535 72.663 19.1417C72.9787 18.53 73.4373 17.9923 74.0396 17.5286C74.6413 17.0549 75.3563 16.6849 76.1854 16.4186C77.024 16.1521 77.9614 16.0189 78.9971 16.0189C80.2409 16.0189 81.3459 16.2261 82.313 16.6406C83.2794 17.0549 84.0391 17.6766 84.5917 18.5053C85.1543 19.3341 85.4353 20.3702 85.4353 21.6134V28.4658C85.4353 29.3439 85.4894 30.0642 85.5985 30.6266C85.7068 31.1791 85.865 31.6626 86.0716 32.0769V32.3286H81.7648C81.5575 31.8944 81.4001 31.3518 81.2917 30.7006C81.1928 30.0395 81.1437 29.3784 81.1437 28.7173ZM81.7056 22.5753L81.7352 24.9877H79.3525C78.7906 24.9877 78.3016 25.0519 77.8878 25.1801C77.4732 25.3084 77.1323 25.491 76.8665 25.7277C76.6 25.9547 76.4028 26.2211 76.2743 26.527C76.1558 26.8329 76.0966 27.1683 76.0966 27.5334C76.0966 27.8985 76.1804 28.229 76.3479 28.5249C76.5162 28.8111 76.7575 29.038 77.0731 29.2058C77.3894 29.3636 77.7592 29.4425 78.1832 29.4425C78.8245 29.4425 79.3821 29.3143 79.8559 29.0577C80.3297 28.8013 80.6944 28.4855 80.9508 28.1106C81.2173 27.7357 81.3553 27.3805 81.3654 27.045L82.4899 28.8506C82.3325 29.2551 82.1151 29.6745 81.8392 30.1086C81.5727 30.5427 81.2325 30.9522 80.8179 31.337C80.4034 31.7119 79.905 32.0227 79.3229 32.2693C78.7407 32.5062 78.0503 32.6245 77.2507 32.6245C76.2345 32.6245 75.3122 32.4223 74.4831 32.0178C73.6648 31.6034 73.0133 31.036 72.5301 30.3157C72.0562 29.5856 71.8195 28.7568 71.8195 27.8293C71.8195 26.9907 71.9773 26.2457 72.2932 25.5946C72.6089 24.9434 73.0726 24.3958 73.6843 23.9517C74.3062 23.4979 75.0804 23.1575 76.0078 22.9305C76.9351 22.6937 78.0106 22.5753 79.234 22.5753H81.7056ZM96.5651 16.3149V19.3341H87.2409V16.3149H96.5651ZM89.5499 12.3634H93.8126V27.5037C93.8126 27.9675 93.8718 28.3227 93.9895 28.5693C94.1181 28.8161 94.3059 28.9887 94.5522 29.0873C94.7992 29.1762 95.1098 29.2206 95.4846 29.2206C95.7511 29.2206 95.988 29.2107 96.1953 29.191C96.412 29.1614 96.5947 29.1318 96.7428 29.1022L96.7572 32.2398C96.3925 32.3582 95.9974 32.4519 95.5734 32.521C95.1495 32.59 94.6807 32.6245 94.1672 32.6245C93.2305 32.6245 92.4114 32.4716 91.7109 32.1658C91.0197 31.85 90.4874 31.3468 90.1125 30.6561C89.7377 29.9655 89.5499 29.0577 89.5499 27.933V12.3634ZM110.477 26.6898C110.477 26.305 110.418 25.9597 110.299 25.6538C110.191 25.338 109.984 25.0519 109.678 24.7954C109.372 24.529 108.943 24.2675 108.39 24.011C107.838 23.7544 107.122 23.4881 106.245 23.2118C105.267 22.896 104.34 22.5408 103.462 22.1462C102.594 21.7515 101.824 21.2927 101.153 20.7697C100.492 20.2369 99.969 19.6203 99.5841 18.9198C99.2092 18.2192 99.0222 17.4052 99.0222 16.4778C99.0222 15.5799 99.2193 14.7659 99.6137 14.0357C100.009 13.2958 100.561 12.6642 101.271 12.1413C101.982 11.6085 102.82 11.1991 103.788 10.9129C104.764 10.6268 105.835 10.4837 106.999 10.4837C108.588 10.4837 109.974 10.7699 111.158 11.3422C112.342 11.9144 113.26 12.6988 113.911 13.6953C114.571 14.6919 114.902 15.8315 114.902 17.1141H110.492C110.492 16.4827 110.359 15.9302 110.092 15.4565C109.836 14.973 109.441 14.5932 108.908 14.317C108.385 14.0407 107.725 13.9025 106.925 13.9025C106.156 13.9025 105.514 14.0209 105.001 14.2577C104.488 14.4847 104.103 14.7954 103.847 15.1902C103.59 15.575 103.462 16.0091 103.462 16.4925C103.462 16.8576 103.551 17.1882 103.728 17.4842C103.916 17.7801 104.192 18.0564 104.557 18.3129C104.922 18.5695 105.371 18.8112 105.904 19.0381C106.437 19.2651 107.054 19.4871 107.754 19.7041C108.928 20.0593 109.959 20.4589 110.847 20.903C111.745 21.3469 112.495 21.8452 113.097 22.3977C113.698 22.9503 114.153 23.5768 114.458 24.2773C114.764 24.9779 114.917 25.7722 114.917 26.6602C114.917 27.5975 114.735 28.4362 114.369 29.1762C114.004 29.9162 113.476 30.5427 112.786 31.0558C112.096 31.5688 111.271 31.9586 110.314 32.225C109.358 32.4914 108.286 32.6245 107.103 32.6245C106.037 32.6245 104.986 32.4865 103.95 32.2102C102.914 31.924 101.972 31.4948 101.123 30.9226C100.285 30.3503 99.6137 29.6201 99.111 28.7321C98.6076 27.8441 98.3555 26.7933 98.3555 25.5798H102.81C102.81 26.2507 102.914 26.818 103.122 27.2818C103.329 27.7455 103.62 28.1204 103.995 28.4066C104.38 28.6927 104.833 28.8999 105.356 29.0282C105.889 29.1565 106.471 29.2206 107.103 29.2206C107.873 29.2206 108.504 29.112 108.997 28.8949C109.501 28.6779 109.87 28.3769 110.107 27.9921C110.353 27.6074 110.477 27.1732 110.477 26.6898ZM119.964 10.7798H123.723L129.258 26.6009L134.794 10.7798H138.553L130.768 32.3286H127.749L119.964 10.7798ZM117.936 10.7798H121.68L122.362 26.2014V32.3286H117.936V10.7798ZM136.836 10.7798H140.595V32.3286H136.155V26.2014L136.836 10.7798ZM152.923 22.8713H147.388L147.359 19.8226H152.006C152.825 19.8226 153.495 19.7189 154.019 19.5117C154.542 19.2947 154.931 18.9839 155.188 18.5794C155.454 18.1649 155.588 17.6618 155.588 17.0697C155.588 16.3988 155.459 15.8561 155.203 15.4417C154.956 15.0274 154.567 14.7264 154.034 14.539C153.511 14.3515 152.835 14.2577 152.006 14.2577H148.927V32.3286H144.488V10.7798H152.006C153.259 10.7798 154.379 10.8981 155.365 11.135C156.362 11.3717 157.206 11.7319 157.896 12.2154C158.587 12.6988 159.115 13.3105 159.48 14.0505C159.845 14.7806 160.027 15.6489 160.027 16.6554C160.027 17.5434 159.825 18.3623 159.421 19.1122C159.026 19.862 158.4 20.4738 157.542 20.9473C156.693 21.421 155.583 21.6824 154.211 21.7318L152.923 22.8713ZM152.731 32.3286H146.175L147.906 28.8654H152.731C153.511 28.8654 154.147 28.742 154.64 28.4954C155.134 28.2388 155.499 27.8935 155.736 27.4594C155.972 27.0253 156.091 26.527 156.091 25.9646C156.091 25.3331 155.982 24.7855 155.765 24.3217C155.558 23.8581 155.222 23.5029 154.759 23.2561C154.295 22.9996 153.683 22.8713 152.923 22.8713H148.646L148.676 19.8226H154.004L155.025 21.0214C156.338 21.0016 157.393 21.2335 158.192 21.717C159.001 22.1905 159.588 22.8072 159.954 23.5669C160.329 24.3267 160.516 25.1407 160.516 26.009C160.516 27.3903 160.215 28.5545 159.613 29.5018C159.011 30.4391 158.128 31.1446 156.964 31.6182C155.81 32.0917 154.398 32.3286 152.731 32.3286Z"
                fill="#0A0A0A"
              />
            </g>
            <defs>
              <clipPath id="clip0_339_25100">
                <rect
                  width="162"
                  height="42.4681"
                  fill="white"
                  transform="translate(0 0.765625)"
                />
              </clipPath>
            </defs>
          </svg>