 <svg
                class="twitter"
                width="24"
                height="25"
                viewBox="0 0 24 25"
                fill="none"
                xmlns="http://www.w3.org/2000/svg"
              >
                <path
                  d="M22 6.15958C21.2483 6.48568 20.4534 6.70125 19.64 6.79958C20.4982 6.28691 21.1413 5.48037 21.45 4.52958C20.6436 5.00965 19.7608 5.34788 18.84 5.52958C18.2245 4.86216 17.405 4.41788 16.5098 4.26644C15.6147 4.11499 14.6945 4.26494 13.8938 4.69277C13.093 5.12061 12.4569 5.80212 12.0852 6.63042C11.7135 7.45873 11.6273 8.38697 11.84 9.26958C10.2094 9.18711 8.61444 8.76254 7.15865 8.02345C5.70287 7.28435 4.41885 6.24728 3.39 4.97958C3.02914 5.60975 2.83952 6.32341 2.84 7.04958C2.83872 7.72397 3.00422 8.3882 3.32176 8.98315C3.63929 9.5781 4.09902 10.0853 4.66 10.4596C4.00798 10.4418 3.36989 10.2669 2.8 9.94958V9.99958C2.80489 10.9445 3.13599 11.8587 3.73731 12.5876C4.33864 13.3164 5.17326 13.8152 6.1 13.9996C5.74326 14.1082 5.37288 14.1654 5 14.1696C4.74189 14.1666 4.48442 14.1432 4.23 14.0996C4.49391 14.9124 5.00462 15.6227 5.69107 16.1317C6.37753 16.6408 7.20558 16.9231 8.06 16.9396C6.6172 18.0749 4.83588 18.6944 3 18.6996C2.66574 18.7007 2.33174 18.6806 2 18.6396C3.87443 19.8498 6.05881 20.4923 8.29 20.4896C9.82969 20.5056 11.3571 20.2146 12.7831 19.6337C14.2091 19.0527 15.505 18.1935 16.5952 17.1061C17.6854 16.0187 18.548 14.725 19.1326 13.3005C19.7172 11.876 20.012 10.3493 20 8.80958C20 8.63958 20 8.45958 20 8.27958C20.7847 7.6944 21.4615 6.97701 22 6.15958Z"
                  fill="#FAFBFF"
                />
              </svg>